<svg width="54" height="74" viewBox="0 0 54 74" fill="none" xmlns="http://www.w3.org/2000/svg">
<path d="M45.6701 31.132C47.4454 26.4203 52.5586 12.791 52.5586 8.42617C52.5586 4.58164 50.1765 1.35859 45.9281 1.35859C39.161 1.35859 33.0919 20.3934 31.1953 24.9316C29.7235 20.8125 22.8351 0 16.766 0C12.0472 0 9.83199 3.30977 9.83199 7.47227C9.83199 12.5742 15.0211 25.7988 16.9025 30.8863C15.9466 30.5539 14.9149 30.2648 13.868 30.2648C10.3175 30.2648 6.53949 34.4707 6.53949 37.8672C6.53949 39.1535 7.28296 40.9602 7.75332 42.1598C2.15455 43.6051 1.6615e-05 47.1605 1.6615e-05 52.5227C-0.0151562 62.9578 10.363 74 24.9593 74C42.8632 74 54 61.1945 54 44.6746C54 38.4453 52.9531 32.823 45.6701 31.132ZM40.299 15.6094C40.9059 13.8316 43.5004 6.31602 45.9281 6.31602C47.2329 6.31602 47.5819 7.60234 47.5819 8.62852C47.5819 11.3891 41.7252 26.6371 40.4355 30.0191L35.2768 29.152L40.299 15.6094ZM14.5962 6.98086C14.5962 5.26094 16.7963 0.375781 21.6213 13.7883L26.871 28.2848C24.5041 28.0969 22.6682 27.8512 21.4999 28.4871C19.846 24.3246 14.5962 11.1867 14.5962 6.98086ZM14.2473 35.2656C18.6929 35.2656 24.4282 48.9383 24.4282 50.7883C24.4282 51.5254 23.6848 52.4359 22.8199 52.4359C19.6488 52.4359 11.152 41.3215 11.152 38.3152C11.1672 37.2023 13.079 35.2656 14.2473 35.2656ZM42.2107 62.1918C37.7955 66.8168 32.1512 69.216 25.5662 69.216C16.5535 69.216 9.4375 64.5043 6.00844 56.4539C3.4139 50.1813 6.58501 46.5824 9.13404 46.5824C10.8637 46.5824 17.3729 55.2977 17.3729 57.1477C17.3729 57.8559 16.2046 58.3473 15.5976 58.3473C13.1548 58.3473 12.1989 56.107 7.84435 50.9184C3.33803 55.2109 10.9548 63.4781 16.6901 63.4781C20.6502 63.4781 23.2296 59.9805 22.4558 57.4078C23.0172 57.4078 23.7151 57.4512 24.231 57.3211C24.3979 61.2379 25.6117 65.9062 30.558 66.2387C30.558 66.1086 30.8615 65.2125 30.8615 65.1691C30.8615 62.6543 29.2532 60.4574 29.2532 57.8992C29.2532 53.809 32.5457 49.8488 35.8837 47.5363C37.0975 46.6691 38.5693 46.1344 39.9955 45.643C41.4673 45.1082 43.0301 44.4867 44.1529 43.4172C43.986 41.7984 43.288 40.3676 41.5887 40.3676C37.3858 40.3676 23.2903 40.9457 23.2903 34.6297C23.2903 33.6613 23.3054 32.7363 25.9303 32.7363C30.8311 32.7363 43.2728 33.8926 46.9143 36.9422C49.6606 39.2691 50.6013 53.3031 42.2107 62.1918ZM27.2504 43.9809C28.7221 44.4289 30.2394 44.559 31.7567 44.848C30.6339 45.6285 29.6325 46.5824 28.6766 47.6086C28.2518 46.3801 27.7359 45.1805 27.2504 43.9809Z" fill="#D3FBFE" fill-opacity="0.3"/>
</svg>
